<?xml version="1.0"?>
<svg width="464" height="464.0041" xmlns="http://www.w3.org/2000/svg" xmlns:svg="http://www.w3.org/2000/svg">
 <g class="layer">
  <title>Layer 1</title>
  <g id="svg_61">
   <path d="m76.196782,96.029096c-3.44532,-3.44922 -3.44532,-9.03515 0,-12.48437l12.48437,-12.48047c1.65625,-1.65625 3.90234,-2.58984 6.24609,-2.58984c2.33985,0 4.58985,0.93359 6.24219,2.58984l20.30469,20.30469l-24.96484,24.96093l-20.3125,-20.30078zm0,0" fill="#f3d55b" id="svg_60"/>
   <path d="m141.806152,71.064256c1.65234,-1.65625 3.90234,-2.58984 6.24219,-2.58984c2.34375,0 4.58984,0.93359 6.24609,2.58984l12.48438,12.48047c3.44531,3.44922 3.44531,9.03515 0,12.48437l-20.30469,20.30078l-24.97266,-24.9375l20.30469,-20.32812zm0,0" fill="#f3d55b" id="svg_59"/>
   <path d="m146.466312,116.357226l-24.96485,-24.96485l-24.96484,24.96485l-92.37891,92.38281c-3.44922,3.44531 -3.44922,9.03516 0,12.48047l12.48047,12.48437c1.65625,1.65625 3.90234,2.58594 6.24609,2.58594s4.58985,-0.92969 6.2461,-2.58594l92.37109,-92.375l92.3711,92.375c1.65625,1.65625 3.90234,2.58594 6.24609,2.58594s4.58984,-0.92969 6.24609,-2.58594l12.48047,-12.48437c3.44531,-3.44531 3.44531,-9.03516 0,-12.48047l-92.3789,-92.38281zm0,0" fill="#f29c1f" id="svg_58"/>
   <path d="m209.778812,229.607226l0,152.91015l-185.38282,0l0,-144.08203l97.10547,-97.10547l88.27735,88.27735zm0,0" fill="#f3d55b" id="svg_57"/>
   <path d="m156.810062,382.517376l-70.6211,0l0,-70.62109c0,-19.5 15.8125,-35.30859 35.3125,-35.30859s35.3086,15.80859 35.3086,35.30859l0,70.62109zm0,0" fill="#f29c1f" id="svg_56"/>
   <path d="m139.157712,223.622846c0,9.75 -7.90625,17.65625 -17.65625,17.65625s-17.65625,-7.90625 -17.65625,-17.65625s7.90625,-17.65625 17.65625,-17.65625s17.65625,7.90625 17.65625,17.65625zm0,0" fill="#A9BDCC" id="svg_55"/>
  </g>
  <g id="svg_62">
   <path d="m297.196782,96.029108c-3.44532,-3.44922 -3.44532,-9.03515 0,-12.48437l12.48437,-12.48047c1.65625,-1.65625 3.90234,-2.58984 6.24609,-2.58984c2.33985,0 4.58985,0.93359 6.24219,2.58984l20.30469,20.30469l-24.96484,24.96093l-20.3125,-20.30078zm0,0" fill="#f3d55b" id="svg_63"/>
   <path d="m362.806152,71.064268c1.65234,-1.65625 3.90234,-2.58984 6.24219,-2.58984c2.34375,0 4.58984,0.93359 6.24609,2.58984l12.48438,12.48047c3.44531,3.44922 3.44531,9.03515 0,12.48437l-20.30469,20.30078l-24.97266,-24.9375l20.30469,-20.32812zm0,0" fill="#f3d55b" id="svg_64"/>
   <path d="m367.466312,116.357238l-24.96485,-24.96485l-24.96484,24.96485l-92.37891,92.38281c-3.44922,3.44531 -3.44922,9.03516 0,12.48047l12.48047,12.48437c1.65625,1.65625 3.90234,2.58594 6.24609,2.58594s4.58985,-0.92969 6.2461,-2.58594l92.37109,-92.375l92.3711,92.375c1.65625,1.65625 3.90234,2.58594 6.24609,2.58594s4.58984,-0.92969 6.24609,-2.58594l12.48047,-12.48437c3.44531,-3.44531 3.44531,-9.03516 0,-12.48047l-92.3789,-92.38281zm0,0" fill="#f29c1f" id="svg_65"/>
   <path d="m430.778812,229.607238l0,152.91015l-185.38282,0l0,-144.08203l97.10547,-97.10547l88.27735,88.27735zm0,0" fill="#f3d55b" id="svg_66"/>
   <path d="m377.810062,382.517388l-70.6211,0l0,-70.62109c0,-19.5 15.8125,-35.30859 35.3125,-35.30859s35.3086,15.80859 35.3086,35.30859l0,70.62109zm0,0" fill="#f29c1f" id="svg_67"/>
   <path d="m360.157712,223.622858c0,9.75 -7.90625,17.65625 -17.65625,17.65625s-17.65625,-7.90625 -17.65625,-17.65625s7.90625,-17.65625 17.65625,-17.65625s17.65625,7.90625 17.65625,17.65625zm0,0" fill="#A9BDCC" id="svg_68"/>
  </g>
 </g>
</svg>