<?xml version="1.0"?>
<svg width="464" height="464.0041" xmlns="http://www.w3.org/2000/svg" xmlns:svg="http://www.w3.org/2000/svg">
 <g class="layer">
  <title>Layer 1</title>
  <path d="m311.84375,415.00391l-160,0l40,-312l80,0l40,312zm0,0" fill="#aabece" id="svg_1"/>
  <path d="m255.84375,183.00391c0,13.2539 -10.74609,24 -24,24c-13.25781,0 -24,-10.7461 -24,-24s10.74219,-24 24,-24c13.25391,0 24,10.74609 24,24zm0,0" fill="#394d5c" id="svg_2"/>
  <path d="m295.84375,103.00391l-128,0l64,-104l64,104zm0,0" fill="#d3843d" id="svg_5"/>
  <path d="m151.84375,415.00391l160,0l0,48l-160,0l0,-48zm0,0" fill="#394d5c" id="svg_6"/>
  <path d="m199.84375,287.00391l16,0l0,16l-16,0l0,-16zm0,0" fill="#394d5c" id="svg_9"/>
  <path d="m247.84375,287.00391l16,0l0,16l-16,0l0,-16zm0,0" fill="#394d5c" id="svg_10"/>
  <path d="m223.84375,255.00391l16,0l0,16l-16,0l0,-16zm0,0" fill="#394d5c" id="svg_11"/>
  <path d="m223.84375,439.00391l16,0l0,24l-16,0l0,-24zm0,0" fill="#aabece" id="svg_12"/>
  <path d="m183.84375,439.00391l16,0l0,24l-16,0l0,-24zm0,0" fill="#aabece" id="svg_13"/>
  <path d="m263.84375,439.00391l16,0l0,24l-16,0l0,-24zm0,0" fill="#aabece" id="svg_14"/>
  <path d="m298.196782,177.029104c-3.44532,-3.44922 -3.44532,-9.03515 0,-12.48437l12.48437,-12.48047c1.65625,-1.65625 3.90234,-2.58984 6.24609,-2.58984c2.33985,0 4.58985,0.93359 6.24219,2.58984l20.30469,20.30469l-24.96484,24.96093l-20.3125,-20.30078zm0,0" fill="#f3d55b" id="svg_48"/>
  <path d="m363.806152,152.064264c1.65234,-1.65625 3.90234,-2.58984 6.24219,-2.58984c2.34375,0 4.58984,0.93359 6.24609,2.58984l12.48438,12.48047c3.44531,3.44922 3.44531,9.03515 0,12.48437l-20.30469,20.30078l-24.97266,-24.9375l20.30469,-20.32812zm0,0" fill="#f3d55b" id="svg_47"/>
  <path d="m368.466312,197.357234l-24.96485,-24.96485l-24.96484,24.96485l-92.37891,92.38281c-3.44922,3.44531 -3.44922,9.03516 0,12.48047l12.48047,12.48437c1.65625,1.65625 3.90234,2.58594 6.24609,2.58594s4.58985,-0.92969 6.2461,-2.58594l92.37109,-92.375l92.3711,92.375c1.65625,1.65625 3.90234,2.58594 6.24609,2.58594s4.58984,-0.92969 6.24609,-2.58594l12.48047,-12.48437c3.44531,-3.44531 3.44531,-9.03516 0,-12.48047l-92.3789,-92.38281zm0,0" fill="#f29c1f" id="svg_46"/>
  <path d="m431.778812,310.607234l0,152.91015l-185.38282,0l0,-144.08203l97.10547,-97.10547l88.27735,88.27735zm0,0" fill="#f3d55b" id="svg_45"/>
  <path d="m378.810062,463.517384l-70.6211,0l0,-70.62109c0,-19.5 15.8125,-35.30859 35.3125,-35.30859s35.3086,15.80859 35.3086,35.30859l0,70.62109zm0,0" fill="#f29c1f" id="svg_44"/>
  <path d="m361.157712,304.622854c0,9.75 -7.90625,17.65625 -17.65625,17.65625s-17.65625,-7.90625 -17.65625,-17.65625s7.90625,-17.65625 17.65625,-17.65625s17.65625,7.90625 17.65625,17.65625zm0,0" fill="#A9BDCC" id="svg_43"/>
  <path d="m75.196782,177.029104c-3.44532,-3.44922 -3.44532,-9.03515 0,-12.48437l12.48437,-12.48047c1.65625,-1.65625 3.90234,-2.58984 6.24609,-2.58984c2.33985,0 4.58985,0.93359 6.24219,2.58984l20.30469,20.30469l-24.96484,24.96093l-20.3125,-20.30078zm0,0" fill="#f3d55b" id="svg_54"/>
  <path d="m140.806152,152.064264c1.65234,-1.65625 3.90234,-2.58984 6.24219,-2.58984c2.34375,0 4.58984,0.93359 6.24609,2.58984l12.48438,12.48047c3.44531,3.44922 3.44531,9.03515 0,12.48437l-20.30469,20.30078l-24.97266,-24.9375l20.30469,-20.32812zm0,0" fill="#f3d55b" id="svg_53"/>
  <path d="m145.466312,197.357234l-24.96485,-24.96485l-24.96484,24.96485l-92.37891,92.38281c-3.44922,3.44531 -3.44922,9.03516 0,12.48047l12.48047,12.48437c1.65625,1.65625 3.90234,2.58594 6.24609,2.58594s4.58985,-0.92969 6.2461,-2.58594l92.37109,-92.375l92.3711,92.375c1.65625,1.65625 3.90234,2.58594 6.24609,2.58594s4.58984,-0.92969 6.24609,-2.58594l12.48047,-12.48437c3.44531,-3.44531 3.44531,-9.03516 0,-12.48047l-92.3789,-92.38281zm0,0" fill="#f29c1f" id="svg_52"/>
  <path d="m208.778812,310.607234l0,152.91015l-185.38282,0l0,-144.08203l97.10547,-97.10547l88.27735,88.27735zm0,0" fill="#f3d55b" id="svg_51"/>
  <path d="m155.810062,463.517384l-70.6211,0l0,-70.62109c0,-19.5 15.8125,-35.30859 35.3125,-35.30859s35.3086,15.80859 35.3086,35.30859l0,70.62109zm0,0" fill="#f29c1f" id="svg_50"/>
  <path d="m138.157712,304.622854c0,9.75 -7.90625,17.65625 -17.65625,17.65625s-17.65625,-7.90625 -17.65625,-17.65625s7.90625,-17.65625 17.65625,-17.65625s17.65625,7.90625 17.65625,17.65625zm0,0" fill="#A9BDCC" id="svg_49"/>
 </g>
</svg>