<?xml version="1.0"?>
<svg width="503.322" height="503.322" xmlns="http://www.w3.org/2000/svg" xmlns:svg="http://www.w3.org/2000/svg">
 <g class="layer">
  <title>Layer 1</title>
  <polygon fill="#e57e25" id="svg_2" points="156.48300170898438,502.94049072265625 347.8730163574219,502.94049072265625 347.8730163574219,231.41550799666948 156.48300170898438,231.41550799666948 "/>
  <g id="svg_1">
   <g id="svg_7">
    <polygon fill="#f3d55b" id="svg_8" points="52.06800079345703,502.3219909667969 156.2030029296875,502.3219909667969 156.2030029296875,233.30499267578125 52.06800079345703,233.30499267578125 "/>
    <polygon fill="#f3d55b" id="svg_9" points="199.59300231933594,502.3219909667969 303.72900390625,502.3219909667969 303.72900390625,354.7969970703125 199.59300231933594,354.7969970703125 "/>
   </g>
   <polygon fill="#ff5656" id="svg_10" points="312.4070129394531,354.7969970703125 190.9149932861328,354.7969970703125 251.66099548339844,268.0169982910156 "/>
   <polygon fill="#ff5656" id="svg_13" points="292.0509948730469,231.77999877929688 205.27099609375,231.77999877929688 248.66099548339844,145 "/>
   <polygon fill="#ff5656" id="svg_14" points="173.5590057373047,233.30499267578125 34.71200180053711,233.30499267578125 104.13600158691406,111.81400299072266 "/>
   <polygon fill="#ff5656" id="svg_15" points="52.06800079345703,285.37298583984375 43.38999938964844,268.0169982910156 0,354.7969970703125 52.06800079345703,354.7969970703125 "/>
   <polygon fill="#de7e25" id="svg_16" points="8.678000450134277,502.3219909667969 52.06800079345703,502.3219909667969 52.06800079345703,354.7969970703125 8.678000450134277,354.7969970703125 "/>
   <polygon fill="#f3d55b" id="svg_17" points="347.1189880371094,502.3219909667969 451.2539978027344,502.3219909667969 451.2539978027344,233.30499267578125 347.1189880371094,233.30499267578125 "/>
   <g id="svg_18">
    <polygon fill="#ff5656" id="svg_19" points="329.76300048828125,233.30499267578125 468.6099853515625,233.30499267578125 399.1860046386719,111.81400299072266 "/>
    <polygon fill="#ff5656" id="svg_20" points="451.2539978027344,285.37298583984375 459.9320068359375,268.0169982910156 503.3219909667969,354.7969970703125 451.2539978027344,354.7969970703125 "/>
   </g>
   <g id="svg_21">
    <polygon fill="#e57e25" id="svg_22" points="451.2539978027344,502.3219909667969 494.6440124511719,502.3219909667969 494.6440124511719,354.7969970703125 451.2539978027344,354.7969970703125 "/>
    <path d="m104.136,328.763c-4.79,0 -8.678,-3.888 -8.678,-8.678l0,-52.068c0,-4.79 3.888,-8.678 8.678,-8.678s8.678,3.888 8.678,8.678l0,52.068c0,4.79 -3.888,8.678 -8.678,8.678" fill="#e57e25" id="svg_23"/>
    <path d="m104.136,476.288c-4.79,0 -8.678,-3.888 -8.678,-8.678l0,-52.068c0,-4.79 3.888,-8.678 8.678,-8.678s8.678,3.888 8.678,8.678l0,52.068c0,4.79 -3.888,8.678 -8.678,8.678" fill="#e57e25" id="svg_24"/>
    <path d="m104.136,389.508c-4.79,0 -8.678,-3.888 -8.678,-8.678l0,-26.034c0,-4.79 3.888,-8.678 8.678,-8.678s8.678,3.888 8.678,8.678l0,26.034c0,4.791 -3.888,8.678 -8.678,8.678" fill="#e57e25" id="svg_25"/>
    <path d="m399.186,328.763c-4.79,0 -8.678,-3.888 -8.678,-8.678l0,-52.068c0,-4.79 3.888,-8.678 8.678,-8.678c4.799,0 8.678,3.888 8.678,8.678l0,52.068c0,4.79 -3.879,8.678 -8.678,8.678" fill="#e57e25" id="svg_26"/>
    <path d="m399.186,476.288c-4.79,0 -8.678,-3.888 -8.678,-8.678l0,-52.068c0,-4.79 3.888,-8.678 8.678,-8.678c4.799,0 8.678,3.888 8.678,8.678l0,52.068c0,4.79 -3.879,8.678 -8.678,8.678" fill="#e57e25" id="svg_27"/>
    <path d="m399.186,389.508c-4.79,0 -8.678,-3.888 -8.678,-8.678l0,-26.034c0,-4.79 3.888,-8.678 8.678,-8.678c4.799,0 8.678,3.888 8.678,8.678l0,26.034c0,4.791 -3.879,8.678 -8.678,8.678" fill="#e57e25" id="svg_28"/>
    <polygon fill="#e57e25" id="svg_29" points="234.30499267578125,502.3219909667969 269.0169982910156,502.3219909667969 269.0169982910156,415.5419921875 234.30499267578125,415.5419921875 "/>
   </g>
   <g id="svg_30">
    <path d="m199.593,302.051c-4.79,0 -8.678,-3.888 -8.678,-8.678l0,-34.712c0,-4.79 3.888,-8.678 8.678,-8.678s8.678,3.888 8.678,8.678l0,34.712c0,4.79 -3.888,8.678 -8.678,8.678" fill="#ADAAA6" id="svg_31"/>
    <path d="m303.729,302.051c-4.79,0 -8.678,-3.888 -8.678,-8.678l0,-34.712c0,-4.79 3.888,-8.678 8.678,-8.678s8.678,3.888 8.678,8.678l0,34.712c0,4.79 -3.888,8.678 -8.678,8.678" fill="#ADAAA6" id="svg_32"/>
   </g>
  </g>
  <g id="svg_34"/>
  <g id="svg_35"/>
  <g id="svg_36"/>
  <g id="svg_37"/>
  <g id="svg_38"/>
  <g id="svg_39"/>
  <g id="svg_40"/>
  <g id="svg_41"/>
  <g id="svg_42"/>
  <g id="svg_43"/>
  <g id="svg_44"/>
  <g id="svg_45"/>
  <g id="svg_46"/>
  <g id="svg_47"/>
  <g id="svg_48"/>
 </g>
</svg>