<?xml version="1.0"?>
<svg width="503.322" height="503.322" xmlns="http://www.w3.org/2000/svg" xmlns:svg="http://www.w3.org/2000/svg">
 <g class="layer">
  <title>Layer 1</title>
  <g id="svg_1">
   <path d="m104.136,138.847c-4.79,0 -8.678,-3.888 -8.678,-8.678l0,-95.457c0,-4.79 3.888,-8.678 8.678,-8.678s8.678,3.888 8.678,8.678l0,95.458c0,4.79 -3.888,8.677 -8.678,8.677" fill="#D6D0C7" id="svg_2"/>
   <path d="m399.186,138.847c-4.79,0 -8.678,-3.888 -8.678,-8.678l0,-95.457c0,-4.79 3.888,-8.678 8.678,-8.678c4.799,0 8.678,3.888 8.678,8.678l0,95.458c0,4.79 -3.879,8.677 -8.678,8.677" fill="#D6D0C7" id="svg_4"/>
   <polygon fill="#ff7e25" id="svg_6" points="329.763,234.305 347.119,208.271 156.203,208.271 173.559,234.305 156.203,234.305    156.203,503.322 347.119,503.322 347.119,234.305  "/>
   <g id="svg_7">
    <polygon fill="#f3d55b" id="svg_8" points="52.068,503.322 156.203,503.322 156.203,234.305 52.068,234.305   "/>
    <polygon fill="#f3d55b" id="svg_9" points="199.593,503.322 303.729,503.322 303.729,355.797 199.593,355.797   "/>
   </g>
   <polygon fill="#ff5656" id="svg_10" points="312.407,355.797 190.915,355.797 251.661,269.017  "/>
   <polygon fill="#f3d55b" id="svg_11" points="216.949,208.271 286.373,208.271 286.373,86.78 216.949,86.78  "/>
   <g id="svg_12">
    <polygon fill="#ff5656" id="svg_13" points="295.051,86.78 208.271,86.78 251.661,0   "/>
    <polygon fill="#ff5656" id="svg_14" points="173.559,234.305 34.712,234.305 104.136,112.814   "/>
    <polygon fill="#ff5656" id="svg_15" points="52.068,286.373 43.39,269.017 0,355.797 52.068,355.797   "/>
   </g>
   <polygon fill="#de7e25" id="svg_16" points="8.678,503.322 52.068,503.322 52.068,355.797 8.678,355.797  "/>
   <polygon fill="#f3d55b" id="svg_17" points="347.119,503.322 451.254,503.322 451.254,234.305 347.119,234.305  "/>
   <g id="svg_18">
    <polygon fill="#ff5656" id="svg_19" points="329.763,234.305 468.61,234.305 399.186,112.814   "/>
    <polygon fill="#ff5656" id="svg_20" points="451.254,286.373 459.932,269.017 503.322,355.797 451.254,355.797   "/>
   </g>
   <g id="svg_21">
    <polygon fill="#e57e25" id="svg_22" points="451.254,503.322 494.644,503.322 494.644,355.797 451.254,355.797   "/>
    <path d="m104.136,329.763c-4.79,0 -8.678,-3.888 -8.678,-8.678l0,-52.068c0,-4.79 3.888,-8.678 8.678,-8.678s8.678,3.888 8.678,8.678l0,52.068c0,4.79 -3.888,8.678 -8.678,8.678" fill="#e57e25" id="svg_23"/>
    <path d="m104.136,477.288c-4.79,0 -8.678,-3.888 -8.678,-8.678l0,-52.068c0,-4.79 3.888,-8.678 8.678,-8.678s8.678,3.888 8.678,8.678l0,52.068c0,4.79 -3.888,8.678 -8.678,8.678" fill="#e57e25" id="svg_24"/>
    <path d="m104.136,390.508c-4.79,0 -8.678,-3.888 -8.678,-8.678l0,-26.034c0,-4.79 3.888,-8.678 8.678,-8.678s8.678,3.888 8.678,8.678l0,26.034c0,4.791 -3.888,8.678 -8.678,8.678" fill="#e57e25" id="svg_25"/>
    <path d="m399.186,329.763c-4.79,0 -8.678,-3.888 -8.678,-8.678l0,-52.068c0,-4.79 3.888,-8.678 8.678,-8.678c4.799,0 8.678,3.888 8.678,8.678l0,52.068c0,4.79 -3.879,8.678 -8.678,8.678" fill="#e57e25" id="svg_26"/>
    <path d="m399.186,477.288c-4.79,0 -8.678,-3.888 -8.678,-8.678l0,-52.068c0,-4.79 3.888,-8.678 8.678,-8.678c4.799,0 8.678,3.888 8.678,8.678l0,52.068c0,4.79 -3.879,8.678 -8.678,8.678" fill="#e57e25" id="svg_27"/>
    <path d="m399.186,390.508c-4.79,0 -8.678,-3.888 -8.678,-8.678l0,-26.034c0,-4.79 3.888,-8.678 8.678,-8.678c4.799,0 8.678,3.888 8.678,8.678l0,26.034c0,4.791 -3.879,8.678 -8.678,8.678" fill="#e57e25" id="svg_28"/>
    <polygon fill="#e57e25" id="svg_29" points="234.305,503.322 269.017,503.322 269.017,416.542 234.305,416.542   "/>
   </g>
   <g id="svg_30">
    <path d="m199.593,295.051c-4.79,0 -8.678,-3.888 -8.678,-8.678l0,-34.712c0,-4.79 3.888,-8.678 8.678,-8.678s8.678,3.888 8.678,8.678l0,34.712c0,4.79 -3.888,8.678 -8.678,8.678" fill="#ADAAA6" id="svg_31"/>
    <path d="m303.729,295.051c-4.79,0 -8.678,-3.888 -8.678,-8.678l0,-34.712c0,-4.79 3.888,-8.678 8.678,-8.678s8.678,3.888 8.678,8.678l0,34.712c0,4.79 -3.888,8.678 -8.678,8.678" fill="#ADAAA6" id="svg_32"/>
   </g>
   <path d="m251.661,173.559c-4.79,0 -8.678,-3.888 -8.678,-8.678l0,-34.712c0,-4.79 3.888,-8.678 8.678,-8.678s8.678,3.888 8.678,8.678l0,34.712c0,4.791 -3.888,8.678 -8.678,8.678" fill="#D6D0C7" id="svg_33"/>
  </g>
  <g id="svg_34"/>
  <g id="svg_35"/>
  <g id="svg_36"/>
  <g id="svg_37"/>
  <g id="svg_38"/>
  <g id="svg_39"/>
  <g id="svg_40"/>
  <g id="svg_41"/>
  <g id="svg_42"/>
  <g id="svg_43"/>
  <g id="svg_44"/>
  <g id="svg_45"/>
  <g id="svg_46"/>
  <g id="svg_47"/>
  <g id="svg_48"/>
  <path d="m105.044764,90.311645c-0.785,0 -1.579,-0.111 -2.338,-0.333l-59.733,-17.067c-3.302,-0.939 -5.717,-3.763 -6.135,-7.177c-0.41,-3.405 1.254,-6.724 4.241,-8.431l59.733,-34.133c2.637,-1.51 5.879,-1.502 8.516,0.026s4.25,4.343 4.25,7.381l0,51.2c0,2.679 -1.254,5.197 -3.388,6.81c-1.502,1.135 -3.311,1.724 -5.146,1.724" fill="#26B99A" id="svg_49"/>
  <path d="m400.044764,90.311645c-0.785,0 -1.579,-0.111 -2.338,-0.333l-59.733,-17.067c-3.302,-0.939 -5.717,-3.763 -6.135,-7.177c-0.41,-3.405 1.254,-6.724 4.241,-8.431l59.733,-34.133c2.637,-1.51 5.879,-1.502 8.516,0.026s4.25,4.343 4.25,7.381l0,51.2c0,2.679 -1.254,5.197 -3.388,6.81c-1.502,1.135 -3.311,1.724 -5.146,1.724" fill="#26B99A" id="svg_50"/>
 </g>
</svg>